<?xml version="1.0" encoding="utf-8"?>
<!-- Generator: Adobe Illustrator 15.1.0, SVG Export Plug-In . SVG Version: 6.00 Build 0)  -->
<!DOCTYPE svg PUBLIC "-//W3C//DTD SVG 1.1//EN" "http://www.w3.org/Graphics/SVG/1.1/DTD/svg11.dtd">
<svg version="1.1" id="Layer_1" xmlns="http://www.w3.org/2000/svg" xmlns:xlink="http://www.w3.org/1999/xlink" x="0px" y="0px"
	 width="250px" height="134px" viewBox="0 0 250 134" enable-background="new 0 0 250 134" xml:space="preserve">
<g>
	<polygon fill="#35A1DF" points="0,0 250,0 250,134 0,134 0,0 	"/>
	<path fill="#222E66" d="M123.925,129.789c4.442-1.363,20.698-11.518,19.163-33.158c-0.883-12.457-6.988-21.326-13.459-29.954
		l-2.646-0.878l-0.086-3.161c-4.131-6.663-8.331-14.102-9.088-24.78c-1.535-21.641,14.721-31.836,19.163-33.199H0V134h250v-4.211
		H123.925L123.925,129.789z"/>
	<line fill="#F2CE3A" stroke="#F2CE3A" stroke-width="2.4159" x1="12.299" y1="45.369" x2="238.041" y2="45.369"/>
	
		<line fill="none" stroke="#F2CE3A" stroke-width="2.4159" stroke-miterlimit="3.8636" x1="12.325" y1="87.506" x2="238.041" y2="87.506"/>
	<path fill="#FFFFFF" stroke="#FFFFFF" stroke-width="0.5177" stroke-miterlimit="3.8636" d="M14.239,30.952l0.096,1.404
		c0.369,0.734,1.436,1.229,2.148,1.229c1.163,0,2.148-0.718,2.148-2.105c0-0.686-0.356-1.212-1.136-1.484l-1.916-0.67
		c-1.149-0.399-1.997-1.34-1.997-2.712c0-2.552,1.628-3.525,3.612-3.525c0.848,0,1.751,0.175,2.545,0.542l0.068,0.191
		c-0.137,0.511-0.192,1.436-0.192,2.265h-0.561l-0.083-1.308c-0.41-0.542-1.176-0.877-1.819-0.877c-1.272,0-1.875,0.861-1.875,1.93
		c0,0.718,0.438,1.245,1.451,1.547l1.56,0.479c1.258,0.383,2.066,1.308,2.066,2.744c0,2.712-1.929,3.845-4.009,3.845
		c-0.985,0-1.984-0.239-2.86-0.734c0.165-0.941,0.205-1.851,0.205-2.76H14.239L14.239,30.952z"/>
	<path fill="#FFFFFF" stroke="#FFFFFF" stroke-width="0.5177" stroke-miterlimit="3.8636" d="M36.119,23.088
		c-3.133,0-5.199,2.009-5.199,5.774c0,3.637,1.861,5.583,4.926,5.583c3.133,0,5.199-2.01,5.199-5.774
		C41.044,25.034,39.184,23.088,36.119,23.088L36.119,23.088z M35.845,33.552c-1.929,0-2.874-2.329-2.874-4.961
		c0-2.393,0.602-4.61,3.147-4.61c1.929,0,2.874,2.345,2.874,4.977C38.992,31.351,38.39,33.552,35.845,33.552L35.845,33.552z"/>
	<path fill="#FFFFFF" stroke="#FFFFFF" stroke-width="0.5177" stroke-miterlimit="3.8636" d="M52.402,25.512
		c0-0.67-0.014-1.101-0.095-1.292c-0.068-0.16-0.206-0.239-0.561-0.271l-0.507-0.047v-0.59c0.561,0.016,1.314,0.048,2.135,0.048
		c0.807,0,1.56-0.032,2.121-0.048v0.59l-0.506,0.047c-0.355,0.032-0.492,0.112-0.561,0.271c-0.082,0.191-0.096,0.622-0.096,1.292
		v3.956c0,2.249,0.123,3.669,2.436,3.669c2.285,0,2.545-1.468,2.545-3.781v-3.844c0-0.67-0.014-1.101-0.096-1.292
		c-0.068-0.16-0.205-0.239-0.561-0.271l-0.506-0.047v-0.59c0.52,0.016,1.054,0.048,1.573,0.048c0.521,0,1.04-0.032,1.56-0.048v0.59
		l-0.506,0.047c-0.356,0.032-0.493,0.112-0.561,0.271c-0.082,0.191-0.096,0.622-0.096,1.292v4.658c0,2.919-1.327,4.275-3.804,4.275
		c-2.586,0-3.913-1.292-3.913-3.095V25.512L52.402,25.512z"/>
	<path fill="#FFFFFF" stroke="#FFFFFF" stroke-width="0.5177" stroke-miterlimit="3.8636" d="M76.267,32.021
		c0,0.67,0.014,1.101,0.096,1.292c0.054,0.127,0.205,0.191,0.561,0.223l0.506,0.048v0.638c-0.561-0.016-1.314-0.048-2.121-0.048
		c-0.821,0-1.573,0.032-2.134,0.048v-0.638l0.506-0.048c0.356-0.032,0.507-0.096,0.561-0.223c0.082-0.192,0.096-0.623,0.096-1.292
		V24.3h-1.601c-0.37,0-0.752,0-0.849,0.144c-0.055,0.08-0.109,0.208-0.123,0.383l-0.069,1.101h-0.547
		c-0.027-1.037-0.068-1.771-0.177-2.537l0.082-0.08c1.437,0.016,2.859,0.048,4.241,0.048c1.396,0,2.818-0.032,4.255-0.048
		l0.082,0.08c-0.109,0.766-0.15,1.5-0.178,2.537h-0.547l-0.068-1.101c-0.014-0.176-0.068-0.304-0.123-0.383
		C78.62,24.3,78.237,24.3,77.868,24.3h-1.601V32.021L76.267,32.021z"/>
	<path fill="#FFFFFF" stroke="#FFFFFF" stroke-width="0.5177" stroke-miterlimit="3.8636" d="M92.662,28.033
		c0.206,0.016,0.465,0.032,1.108,0.032h1.998c0.643,0,0.903-0.016,1.108-0.032v-2.521c0-0.67-0.014-1.101-0.096-1.292
		c-0.055-0.128-0.205-0.191-0.561-0.223l-0.506-0.048v-0.638c0.561,0.016,1.313,0.048,2.134,0.048c0.808,0,1.56-0.032,2.121-0.048
		v0.638l-0.506,0.048c-0.356,0.032-0.506,0.095-0.561,0.223c-0.082,0.191-0.095,0.622-0.095,1.292v6.508
		c0,0.67,0.013,1.101,0.095,1.292c0.055,0.127,0.205,0.191,0.561,0.223l0.506,0.048v0.638c-0.561-0.016-1.313-0.048-2.121-0.048
		c-0.821,0-1.573,0.032-2.134,0.048v-0.638l0.506-0.048c0.356-0.032,0.506-0.096,0.561-0.223c0.082-0.192,0.096-0.623,0.096-1.292
		V28.99c-0.205-0.016-0.465-0.032-1.108-0.032h-1.998c-0.643,0-0.903,0.016-1.108,0.032v3.031c0,0.67,0.014,1.101,0.096,1.292
		c0.055,0.127,0.205,0.191,0.561,0.223l0.506,0.048v0.638c-0.561-0.016-1.313-0.048-2.121-0.048c-0.821,0-1.573,0.032-2.134,0.048
		v-0.638l0.506-0.048c0.356-0.032,0.506-0.096,0.561-0.223c0.082-0.192,0.095-0.623,0.095-1.292v-6.508
		c0-0.67-0.013-1.101-0.095-1.292c-0.055-0.128-0.205-0.191-0.561-0.223l-0.506-0.048v-0.638c0.561,0.016,1.313,0.048,2.134,0.048
		c0.807,0,1.56-0.032,2.121-0.048v0.638l-0.506,0.048c-0.356,0.032-0.506,0.095-0.561,0.223c-0.082,0.191-0.096,0.622-0.096,1.292
		V28.033L92.662,28.033z"/>
	<path fill="#FFFFFF" stroke="#FFFFFF" stroke-width="0.5177" stroke-miterlimit="3.8636" d="M156.939,106.076
		c-0.68,0.48-1.477,0.631-2.266,0.631c-2.244,0-3.898-1.471-3.898-4.215c0-2.641,1.842-3.959,3.939-3.959
		c0.807,0,1.467,0.08,2.412,0.539l0.059,0.125c-0.098,0.414-0.176,1.264-0.227,1.758h-0.385l-0.049-0.988
		c-0.48-0.586-1.102-0.791-1.771-0.791c-1.635,0-2.502,1.354-2.502,3.168c0,2.102,1.045,3.617,2.906,3.617
		c0.58,0,1.377-0.242,1.881-0.586l0.117,0.137L156.939,106.076L156.939,106.076z"/>
	<path fill="#FFFFFF" stroke="#FFFFFF" stroke-width="0.5177" stroke-miterlimit="3.8636" d="M168.289,98.533
		c-2.256,0-3.742,1.445-3.742,4.154c0,2.619,1.34,4.02,3.545,4.02c2.256,0,3.742-1.447,3.742-4.156
		C171.834,99.932,170.494,98.533,168.289,98.533L168.289,98.533z M168.092,106.064c-1.389,0-2.068-1.678-2.068-3.572
		c0-1.721,0.434-3.316,2.266-3.316c1.389,0,2.068,1.688,2.068,3.582C170.357,104.479,169.924,106.064,168.092,106.064
		L168.092,106.064z"/>
	<path fill="#FFFFFF" stroke="#FFFFFF" stroke-width="0.5177" stroke-miterlimit="3.8636" d="M180.01,100.277
		c0-0.482-0.01-0.793-0.068-0.93c-0.049-0.115-0.146-0.172-0.402-0.195l-0.365-0.035v-0.424c0.404,0.012,0.945,0.033,1.537,0.033
		c0.58,0,1.121-0.021,1.525-0.033v0.424l-0.365,0.035c-0.256,0.023-0.354,0.08-0.402,0.195c-0.059,0.137-0.068,0.447-0.068,0.93
		v2.848c0,1.619,0.088,2.639,1.752,2.639c1.645,0,1.832-1.055,1.832-2.719v-2.768c0-0.482-0.01-0.793-0.068-0.93
		c-0.049-0.115-0.148-0.172-0.404-0.195l-0.365-0.035v-0.424c0.375,0.012,0.76,0.033,1.133,0.033c0.375,0,0.748-0.021,1.123-0.033
		v0.424l-0.365,0.035c-0.256,0.023-0.354,0.08-0.402,0.195c-0.061,0.137-0.07,0.447-0.07,0.93v3.352
		c0,2.102-0.955,3.078-2.736,3.078c-1.861,0-2.818-0.93-2.818-2.229V100.277L180.01,100.277z"/>
	<path fill="#FFFFFF" stroke="#FFFFFF" stroke-width="0.5177" stroke-miterlimit="3.8636" d="M194.393,100.277
		c0-0.482-0.01-0.793-0.068-0.93c-0.051-0.115-0.148-0.172-0.404-0.195l-0.365-0.035v-0.424c0.395,0.012,0.787,0.033,1.182,0.033
		c0.275,0,0.553-0.021,0.828-0.033c0.334,0.504,0.66,1.043,1.014,1.525l3.072,4.18v-4.121c0-0.482-0.01-0.793-0.068-0.93
		c-0.049-0.115-0.146-0.172-0.404-0.195l-0.363-0.035v-0.424c0.373,0.012,0.758,0.033,1.131,0.033c0.375,0,0.75-0.021,1.123-0.033
		v0.424l-0.363,0.035c-0.256,0.023-0.355,0.08-0.404,0.195c-0.059,0.137-0.068,0.447-0.068,0.93v5.213c0,0.4,0.02,0.814,0.029,1.158
		l-0.068,0.047l-0.809-0.15c-0.404-0.527-0.816-1.066-1.201-1.596l-3.189-4.477h-0.021v4.488c0,0.482,0.01,0.793,0.07,0.93
		c0.049,0.115,0.146,0.174,0.402,0.195l0.365,0.035v0.424c-0.375-0.012-0.748-0.033-1.123-0.033c-0.373,0-0.758,0.021-1.133,0.033
		v-0.424l0.365-0.035c0.256-0.021,0.354-0.08,0.404-0.195c0.059-0.137,0.068-0.447,0.068-0.93V100.277L194.393,100.277z"/>
	<path fill="#FFFFFF" stroke="#FFFFFF" stroke-width="0.5177" stroke-miterlimit="3.8636" d="M214.051,106.076
		c-0.678,0.48-1.477,0.631-2.264,0.631c-2.246,0-3.9-1.471-3.9-4.215c0-2.641,1.842-3.959,3.939-3.959
		c0.807,0,1.467,0.08,2.412,0.539l0.059,0.125c-0.098,0.414-0.176,1.264-0.227,1.758h-0.383l-0.049-0.988
		c-0.484-0.586-1.104-0.791-1.773-0.791c-1.635,0-2.502,1.354-2.502,3.168c0,2.102,1.045,3.617,2.906,3.617
		c0.58,0,1.379-0.242,1.881-0.586l0.117,0.137L214.051,106.076L214.051,106.076z"/>
	<path fill="#FFFFFF" stroke="#FFFFFF" stroke-width="0.5177" stroke-miterlimit="3.8636" d="M223.805,104.961
		c0,0.482,0.01,0.793,0.068,0.93c0.041,0.092,0.148,0.139,0.404,0.16l0.365,0.035v0.459c-0.404-0.012-0.945-0.033-1.527-0.033
		c-0.59,0-1.133,0.021-1.535,0.033v-0.459l0.363-0.035c0.256-0.021,0.365-0.068,0.404-0.16c0.059-0.137,0.068-0.447,0.068-0.93
		v-4.684c0-0.482-0.01-0.793-0.068-0.93c-0.039-0.092-0.148-0.139-0.404-0.16l-0.363-0.035v-0.459
		c0.402,0.012,0.945,0.033,1.535,0.033c0.582,0,1.123-0.021,1.527-0.033v0.459l-0.365,0.035c-0.256,0.021-0.363,0.068-0.404,0.16
		c-0.059,0.137-0.068,0.447-0.068,0.93V104.961L223.805,104.961z"/>
	<path fill="#FFFFFF" stroke="#FFFFFF" stroke-width="0.5177" stroke-miterlimit="3.8636" d="M234.268,105.844
		c0.412,0.025,0.836,0.035,1.26,0.035c0.453,0,1.182-0.102,1.201-0.195l0.227-1.17h0.385l-0.109,1.906l-0.049,0.092
		c-0.641,0.057-1.783,0.057-2.422,0.033c-0.404-0.012-0.809-0.033-1.211-0.033c-0.414,0-0.818,0.021-1.182,0.033v-0.264l0.314-0.205
		c0.156-0.105,0.195-0.299,0.195-0.654v-5.145c0-0.482-0.008-0.793-0.068-0.93c-0.039-0.092-0.146-0.139-0.402-0.16l-0.365-0.035
		v-0.459c0.404,0.012,0.945,0.033,1.537,0.033c0.58,0,1.121-0.021,1.525-0.033v0.459l-0.363,0.035
		c-0.256,0.021-0.365,0.068-0.404,0.16c-0.059,0.137-0.068,0.447-0.068,0.93V105.844L234.268,105.844z"/>
	<path fill="#FFFFFF" stroke="#FFFFFF" stroke-width="0.3451" d="M18.291,73.988c0.989,0.055,2.002,0.082,3.015,0.082
		c1.083,0,2.826-0.246,2.874-0.467l0.542-2.801h0.918l-0.259,4.559l-0.118,0.219c-1.531,0.139-4.263,0.139-5.793,0.082
		c-0.965-0.027-1.931-0.082-2.897-0.082c-0.989,0-1.955,0.055-2.826,0.082v-0.631l0.754-0.494c0.376-0.248,0.471-0.713,0.471-1.564
		V60.674c0-1.153-0.023-1.895-0.165-2.225c-0.094-0.219-0.354-0.329-0.966-0.384l-0.872-0.082v-1.098
		c0.966,0.027,2.261,0.082,3.674,0.082c1.389,0,2.685-0.055,3.65-0.082v1.098l-0.871,0.082c-0.613,0.056-0.872,0.165-0.966,0.384
		c-0.142,0.33-0.165,1.071-0.165,2.225V73.988L18.291,73.988z"/>
	<path fill="#FFFFFF" stroke="#FFFFFF" stroke-width="0.3451" d="M47.267,74.564c-0.73-0.109-1.036-0.521-1.295-1.207l-6.1-16.609
		H38.2l-0.353,1.125l-0.377,1.125l-0.612,1.895l-4.263,12.025c-0.283,0.795-0.707,1.564-1.319,1.646l-0.707,0.082v1.016
		c1.13-0.027,1.979-0.082,2.661-0.082c0.683,0,1.531,0.055,2.661,0.082v-1.016l-1.177-0.082c-0.424-0.027-0.895-0.521-0.565-1.564
		l0.989-3.074h5.912l1.059,3.129c0.307,0.879,0.047,1.482-0.329,1.51l-1.249,0.082v1.016c1.555-0.027,2.732-0.082,3.65-0.082
		c0.919,0,2.072,0.055,3.651,0.082v-1.016L47.267,74.564L47.267,74.564z M35.704,68.389l2.355-6.974l2.45,6.974H35.704
		L35.704,68.389z"/>
	<path fill="#FFFFFF" stroke="#FFFFFF" stroke-width="0.3451" d="M55.408,60.674c0-1.153-0.023-1.895-0.165-2.225
		c-0.118-0.274-0.354-0.411-0.966-0.466L53.407,57.9v-1.016c0.942,0.027,1.884,0.082,2.826,0.082c0.659,0,1.318-0.055,1.979-0.082
		c0.8,1.208,1.578,2.498,2.425,3.651l7.348,9.993v-9.855c0-1.153-0.023-1.895-0.165-2.225c-0.118-0.274-0.354-0.411-0.966-0.466
		L65.983,57.9v-1.016c0.895,0.027,1.813,0.082,2.708,0.082c0.896,0,1.79-0.055,2.685-0.082V57.9l-0.871,0.083
		c-0.612,0.055-0.848,0.192-0.966,0.466c-0.141,0.33-0.165,1.071-0.165,2.225v12.463c0,0.961,0.047,1.949,0.071,2.773L69.28,76.02
		l-1.932-0.357c-0.965-1.262-1.954-2.553-2.873-3.816l-7.63-10.705h-0.047v10.734c0,1.152,0.024,1.895,0.165,2.223
		c0.117,0.275,0.353,0.412,0.965,0.467l0.872,0.082v1.016c-0.895-0.027-1.79-0.082-2.685-0.082c-0.895,0-1.813,0.055-2.708,0.082
		v-1.016l0.871-0.082c0.612-0.055,0.848-0.191,0.966-0.467c0.142-0.328,0.165-1.07,0.165-2.223V60.674L55.408,60.674z"/>
	<path fill="#FFFFFF" stroke="#FFFFFF" stroke-width="0.3451" d="M93.465,74.564c-0.729-0.109-1.036-0.521-1.295-1.207l-6.1-16.609
		h-1.672l-0.353,1.125l-0.377,1.125l-0.612,1.895l-4.263,12.025c-0.282,0.795-0.706,1.564-1.318,1.646l-0.707,0.082v1.016
		c1.13-0.027,1.978-0.082,2.661-0.082c0.683,0,1.531,0.055,2.662,0.082v-1.016l-1.178-0.082c-0.424-0.027-0.895-0.521-0.565-1.564
		l0.989-3.074h5.912l1.06,3.129c0.306,0.879,0.047,1.482-0.33,1.51l-1.248,0.082v1.016c1.554-0.027,2.731-0.082,3.65-0.082
		c0.919,0,2.073,0.055,3.65,0.082v-1.016L93.465,74.564L93.465,74.564z M81.902,68.389l2.355-6.974l2.449,6.974H81.902
		L81.902,68.389z"/>
	<path fill="#FFFFFF" stroke="#FFFFFF" stroke-width="0.3451" d="M102.046,60.674c0-1.153-0.023-1.895-0.164-2.225
		c-0.118-0.274-0.354-0.411-0.966-0.466l-0.871-0.083v-1.016c1.554,0.027,2.755,0.082,3.956,0.082c1.602,0,3.179-0.055,4.781-0.082
		c2.403-0.055,4.616,0.796,4.616,4.063c0,2.416-1.554,4.036-3.509,4.859l4.263,7.522c0.165,0.301,0.423,0.604,0.683,0.85
		c0.212,0.193,0.518,0.275,0.966,0.385v1.098c-0.754-0.027-1.53-0.082-2.285-0.082c-0.706,0-1.413,0.055-2.12,0.082l-5.275-9.526
		l0.165-0.494c2.167,0.219,3.769-1.346,3.769-3.926c0-2.252-1.343-3.459-3.18-3.459c-0.494,0-1.13,0.027-1.507,0.247v13.371
		c0,1.152,0.023,1.895,0.165,2.223c0.094,0.219,0.353,0.33,0.965,0.385l0.872,0.082v1.098c-0.966-0.027-2.261-0.082-3.651-0.082
		c-1.413,0-2.708,0.055-3.673,0.082v-1.098l0.871-0.082c0.612-0.055,0.872-0.166,0.966-0.385c0.141-0.328,0.164-1.07,0.164-2.223
		V60.674L102.046,60.674z"/>
	<path fill="#FFFFFF" stroke="#FFFFFF" stroke-width="0.3451" d="M146.135,70.035l0.166,2.416c0.635,1.262,2.473,2.113,3.697,2.113
		c2.002,0,3.697-1.234,3.697-3.623c0-1.181-0.613-2.087-1.955-2.553l-3.297-1.154c-1.979-0.686-3.439-2.306-3.439-4.667
		c0-4.393,2.803-6.067,6.219-6.067c1.459,0,3.014,0.302,4.379,0.933l0.119,0.33c-0.234,0.877-0.33,2.471-0.33,3.897h-0.965
		l-0.143-2.25c-0.705-0.934-2.025-1.51-3.131-1.51c-2.191,0-3.227,1.482-3.227,3.322c0,1.235,0.754,2.141,2.496,2.662l2.686,0.825
		c2.166,0.659,3.557,2.25,3.557,4.721c0,4.667-3.322,6.616-6.902,6.616c-1.695,0-3.414-0.412-4.922-1.262
		c0.283-1.621,0.354-3.186,0.354-4.75H146.135L146.135,70.035z"/>
	<path fill="#FFFFFF" stroke="#FFFFFF" stroke-width="0.3451" d="M169.002,65.011c0.354,0.027,0.801,0.054,1.908,0.054h3.439
		c1.105,0,1.555-0.027,1.908-0.054v-4.337c0-1.153-0.025-1.895-0.166-2.225c-0.094-0.219-0.354-0.329-0.965-0.384l-0.871-0.082
		v-1.098c0.965,0.027,2.26,0.082,3.672,0.082c1.391,0,2.686-0.055,3.652-0.082v1.098l-0.873,0.082
		c-0.611,0.056-0.871,0.165-0.965,0.384c-0.141,0.33-0.164,1.071-0.164,2.225v11.201c0,1.152,0.023,1.895,0.164,2.223
		c0.094,0.219,0.354,0.33,0.965,0.385l0.873,0.082v1.098c-0.967-0.027-2.262-0.082-3.652-0.082c-1.412,0-2.707,0.055-3.672,0.082
		v-1.098l0.871-0.082c0.611-0.055,0.871-0.166,0.965-0.385c0.141-0.328,0.166-1.07,0.166-2.223v-5.217
		c-0.354-0.027-0.803-0.055-1.908-0.055h-3.439c-1.107,0-1.555,0.028-1.908,0.055v5.217c0,1.152,0.023,1.895,0.166,2.223
		c0.094,0.219,0.354,0.33,0.965,0.385l0.873,0.082v1.098c-0.967-0.027-2.262-0.082-3.652-0.082c-1.412,0-2.707,0.055-3.674,0.082
		v-1.098l0.873-0.082c0.611-0.055,0.871-0.166,0.965-0.385c0.141-0.328,0.164-1.07,0.164-2.223V60.674
		c0-1.153-0.023-1.895-0.164-2.225c-0.094-0.219-0.354-0.329-0.965-0.384l-0.873-0.082v-1.098c0.967,0.027,2.262,0.082,3.674,0.082
		c1.391,0,2.686-0.055,3.652-0.082v1.098l-0.873,0.082c-0.611,0.056-0.871,0.165-0.965,0.384c-0.143,0.33-0.166,1.071-0.166,2.225
		V65.011L169.002,65.011z"/>
	<path fill="#FFFFFF" stroke="#FFFFFF" stroke-width="0.3451" d="M193.637,71.875c0,1.152,0.023,1.895,0.164,2.223
		c0.094,0.219,0.354,0.33,0.967,0.385l0.871,0.082v1.098c-0.967-0.027-2.262-0.082-3.65-0.082c-1.414,0-2.709,0.055-3.676,0.082
		v-1.098l0.871-0.082c0.613-0.055,0.873-0.166,0.967-0.385c0.143-0.328,0.164-1.07,0.164-2.223V60.674
		c0-1.153-0.021-1.895-0.164-2.225c-0.094-0.219-0.354-0.329-0.967-0.384l-0.871-0.082v-1.098c0.967,0.027,2.262,0.082,3.676,0.082
		c1.389,0,2.684-0.055,3.65-0.082v1.098l-0.871,0.082c-0.613,0.056-0.873,0.165-0.967,0.384c-0.141,0.33-0.164,1.071-0.164,2.225
		V71.875L193.637,71.875z"/>
	<path fill="#FFFFFF" stroke="#FFFFFF" stroke-width="0.3451" d="M204.424,60.674c0-1.153-0.025-1.895-0.166-2.225
		c-0.117-0.274-0.354-0.411-0.965-0.466l-0.871-0.083v-1.016c1.553,0.027,2.754,0.082,3.957,0.082c1.6,0,3.178-0.055,4.779-0.082
		c2.402-0.055,4.617,0.796,4.617,4.063c0,2.416-1.555,4.036-3.51,4.859l4.264,7.522c0.164,0.301,0.424,0.604,0.682,0.85
		c0.211,0.193,0.518,0.275,0.965,0.385v1.098c-0.754-0.027-1.531-0.082-2.283-0.082c-0.707,0-1.414,0.055-2.121,0.082l-5.273-9.526
		l0.164-0.494c2.166,0.219,3.768-1.346,3.768-3.926c0-2.252-1.342-3.459-3.178-3.459c-0.496,0-1.131,0.027-1.508,0.247v13.371
		c0,1.152,0.023,1.895,0.164,2.223c0.094,0.219,0.354,0.33,0.967,0.385l0.871,0.082v1.098c-0.967-0.027-2.262-0.082-3.65-0.082
		c-1.414,0-2.709,0.055-3.674,0.082v-1.098l0.871-0.082c0.611-0.055,0.871-0.166,0.965-0.385c0.141-0.328,0.166-1.07,0.166-2.223
		V60.674L204.424,60.674z"/>
	<path fill="#FFFFFF" stroke="#FFFFFF" stroke-width="0.3451" d="M229.695,65.148c0.541,0.055,1.061,0.055,1.578,0.055h1.555
		c0.824,0,1.295-0.055,1.342-0.576l0.141-1.566h0.943c-0.023,0.989-0.072,1.95-0.072,2.938c0,0.987,0.049,1.976,0.072,2.965h-0.943
		l-0.141-1.374c-0.07-0.768-0.518-1.016-1.342-1.016h-1.555c-0.518,0-1.037,0.027-1.578,0.083v7.33
		c0.988,0.055,2.002,0.082,3.014,0.082c1.084,0,2.826-0.246,2.873-0.467l0.543-2.58h0.918l-0.258,4.338l-0.119,0.219
		c-1.531,0.139-4.264,0.139-5.793,0.082c-0.967-0.027-1.932-0.082-2.896-0.082c-0.99,0-1.955,0.055-2.826,0.082v-0.631l0.754-0.494
		c0.375-0.248,0.471-0.713,0.471-1.564V60.674c0-1.153-0.023-1.895-0.166-2.225c-0.117-0.274-0.352-0.411-0.965-0.466l-0.871-0.083
		v-1.016c1.555,0.027,2.754,0.082,3.674,0.082c2.213,0,3.814-0.055,5.158-0.082c1.318-0.027,2.354-0.027,3.438,0.082l0.143,0.192
		l-0.33,3.899h-0.848l-0.189-2.06c-0.047-0.412-1.625-0.522-2.709-0.522c-1.012,0-2.025,0.028-3.014,0.083V65.148L229.695,65.148z"
		/>
	<path fill="#FFFFFF" stroke="#FFFFFF" stroke-width="0.3451" d="M124.562,60.674c0-1.153-0.023-1.55-0.165-1.879
		c-0.095-0.22-0.354-0.674-0.966-0.73l-0.872-0.082v-1.098c0.965,0.027,2.261,0.082,3.674,0.082c1.391,0,2.686-0.055,3.65-0.082
		v1.098l-0.871,0.082c-0.611,0.056-0.871,0.165-0.965,0.384c-0.143,0.33-0.166,1.071-0.166,2.225v5.078
		c0,0.11,0.094,0.165,0.213,0.165l4.428-5.051c0.564-0.66,1.295-1.62,1.836-2.307c0.26-0.329,0.377-0.659,0.377-0.988v-0.687
		c0.707,0.027,1.438,0.082,2.143,0.082c0.707,0,1.438-0.055,2.145-0.082v1.071c-0.99,0.109-1.885,0.165-2.592,0.933l-5.229,5.683
		l6.266,8.592c0.494,0.686,1.131,1.373,2.143,1.373v1.125c-0.801-0.027-1.578-0.082-2.379-0.082s-1.602,0.055-2.4,0.082l-4.9-6.836
		c-0.541-0.768-1.342-1.921-1.789-2.168c-0.189-0.027-0.26,0.137-0.26,0.247v4.97c0,1.152,0.023,1.895,0.166,2.223
		c0.094,0.219,0.354,0.33,0.965,0.385l0.871,0.082v1.098c-0.965-0.027-2.26-0.082-3.65-0.082c-1.413,0-2.708,0.055-3.674,0.082
		v-1.098l0.872-0.082c0.612-0.055,0.871-0.166,0.966-0.385c0.141-0.328,0.165-1.07,0.165-2.223V60.674L124.562,60.674z"/>
</g>
</svg>
